<?xml version="1.0" encoding="UTF-8"?>
<svg version="1.1" xmlns="http://www.w3.org/2000/svg" width="128" height="128">
<path d="M0 0 C8.23305117 6.72844839 14.7794716 14.65792526 16.8125 25.3125 C17.65445268 37.6933451 16.73483487 48.41208648 8.5703125 58.40234375 C0.97841798 66.65220246 -7.23011435 72.85578471 -18.7265625 73.515625 C-31.46966222 73.76371522 -40.53431796 72.28735033 -50.1875 63.3125 C-59.17266327 54.5667283 -63.38691697 45.84525704 -63.5625 33.3125 C-63.59150477 21.46720425 -59.86910107 13.05569117 -51.578125 4.50390625 C-37.1213532 -8.74813457 -16.57283238 -11.50802094 0 0 Z " fill="#01A3EE" transform="translate(87.1875,30.6875)"/>
<path d="M0 0 C4.20490286 1.65192612 4.80982935 3.01228669 8 7 C-2.89 17.89 -13.78 28.78 -25 40 C-28.45259693 38.27370154 -30.07238601 37.16774527 -32.671875 34.5234375 C-33.33574219 33.853125 -33.99960937 33.1828125 -34.68359375 32.4921875 C-35.36550781 31.79351562 -36.04742187 31.09484375 -36.75 30.375 C-37.44738281 29.66859375 -38.14476562 28.9621875 -38.86328125 28.234375 C-40.58007465 26.49406388 -42.29064819 24.74762088 -44 23 C-42.02 20.69 -40.04 18.38 -38 16 C-34.50646162 17.74676919 -32.86054237 18.91405215 -30.25 21.625 C-29.63640625 22.25664063 -29.0228125 22.88828125 -28.390625 23.5390625 C-27.93171875 24.02117187 -27.4728125 24.50328125 -27 25 C-23.09148801 23.41568547 -20.47632644 20.73364905 -17.578125 17.7734375 C-16.82085114 17.01191879 -16.82085114 17.01191879 -16.04827881 16.23501587 C-14.44407904 14.61966158 -12.84699144 12.99747791 -11.25 11.375 C-10.16061893 10.27558302 -9.0707801 9.17661941 -7.98046875 8.078125 C-5.31498115 5.3906398 -2.65584857 2.69700979 0 0 Z " fill="#F5FBFE" transform="translate(82,44)"/>
</svg>
